<?xml version="1.0" standalone="no"?>
<!DOCTYPE svg PUBLIC "-//W3C//DTD SVG 20010904//EN"
 "http://www.w3.org/TR/2001/REC-SVG-20010904/DTD/svg10.dtd">
<svg version="1.0" xmlns="http://www.w3.org/2000/svg"
 width="201.000000pt" height="268.000000pt" viewBox="0 0 201.000000 268.000000"
 preserveAspectRatio="xMidYMid meet">

<g transform="translate(0.000000,268.000000) scale(0.100000,-0.100000)"
fill="#FFA500" stroke="none">
<path d="M840 2420 l0 -100 205 0 205 0 0 100 0 100 -205 0 -205 0 0 -100z"/>
<path d="M425 2040 l140 -140 -140 -140 -140 -140 625 0 625 0 137 138 136
137 -137 143 -138 142 -624 0 -624 0 140 -140z"/>
<path d="M840 1410 l0 -70 -138 0 -137 0 -140 -140 -140 -140 135 -135 135
-135 625 0 625 0 -138 138 -137 137 137 138 138 137 -278 0 -277 0 0 70 0 70
-205 0 -205 0 0 -70z"/>
<path d="M840 465 l0 -175 -140 0 -140 0 0 -65 0 -65 485 0 485 0 0 65 0 65
-140 0 -140 0 0 175 0 175 -205 0 -205 0 0 -175z"/>
</g>
</svg>
